<svg id="Слой_1" data-name="Слой 1" xmlns="http://www.w3.org/2000/svg" viewBox="0 0 48 48"><defs><style>.cls-1{fill:#3a7fc1;}</style></defs><title>Монтажная область 2</title><path class="cls-1" d="M47.69,18.24a6.45,6.45,0,0,0-8.1-4.14,6.43,6.43,0,0,0-4.42,6.8l-2.79.9a9.33,9.33,0,0,0-7.06-5.14V13.73a6.43,6.43,0,1,0-2.64,0v2.93a9.33,9.33,0,0,0-7.06,5.14l-2.79-.9a6.43,6.43,0,0,0-4.42-6.8h0a6.43,6.43,0,0,0-7.7,9,6.43,6.43,0,0,0,5.72,3.5A6.46,6.46,0,0,0,12,23.41l2.79.9a9.1,9.1,0,0,0-.15,1.58,9.32,9.32,0,0,0,2.69,6.55l-1.78,2.32A6.43,6.43,0,0,0,8.9,45.68a6.43,6.43,0,0,0,8.77-9.32L19.44,34a9.33,9.33,0,0,0,9.12,0l1.77,2.32a6.34,6.34,0,0,0-1.5,3.35,6.43,6.43,0,1,0,3.6-5l-1.78-2.32a9.32,9.32,0,0,0,2.69-6.55,9.1,9.1,0,0,0-.15-1.58l2.79-.9a6.44,6.44,0,0,0,7.56,2.93,6.37,6.37,0,0,0,3.75-3.19A6.45,6.45,0,0,0,47.69,18.24ZM10.05,21.39a3.8,3.8,0,1,1-3.61-5,3.9,3.9,0,0,1,1.16.18h0A3.8,3.8,0,0,1,10.05,21.39ZM20.2,7.44a3.8,3.8,0,1,1,3.8,3.8A3.8,3.8,0,0,1,20.2,7.44ZM15.82,42.87a3.8,3.8,0,1,1-3-6.1,3.77,3.77,0,0,1,2.31.78,3.81,3.81,0,0,1,1.46,2.51A3.77,3.77,0,0,1,15.82,42.87Zm22.4-4.61a3.8,3.8,0,1,1-6,4.61,3.77,3.77,0,0,1-.75-2.81,3.81,3.81,0,0,1,1.46-2.51,3.81,3.81,0,0,1,5.33.71ZM24,32.6a6.71,6.71,0,1,1,6.71-6.71A6.72,6.72,0,0,1,24,32.6Zm18.73-8.76A3.8,3.8,0,0,1,40.4,16.6a3.9,3.9,0,0,1,1.16-.18,3.8,3.8,0,0,1,1.17,7.42Z"/></svg>