<svg id="Слой_1" data-name="Слой 1" xmlns="http://www.w3.org/2000/svg" viewBox="0 0 48 48"><defs><style>.cls-1{fill:#3a7fc1;}</style></defs><title>Монтажная область 9</title><circle class="cls-1" cx="24" cy="13.5" r="1.75"/><path class="cls-1" d="M24,3A21,21,0,1,0,45,24,21,21,0,0,0,24,3Zm0,39.37A18.37,18.37,0,1,1,42.37,24,18.39,18.39,0,0,1,24,42.37Z"/><path class="cls-1" d="M27.94,33.62H25.31V20.06A1.31,1.31,0,0,0,24,18.75H20.94a1.31,1.31,0,1,0,0,2.62h1.75V33.62H20.06a1.32,1.32,0,0,0,0,2.63h7.88a1.32,1.32,0,0,0,0-2.63Z"/></svg>