<svg id="Слой_1" data-name="Слой 1" xmlns="http://www.w3.org/2000/svg" viewBox="0 0 48 48"><defs><style>.cls-1{fill:#3a7fc1;}</style></defs><title>Монтажная область 5</title><path class="cls-1" d="M24.92,1.91a1.46,1.46,0,0,0-1.84,2.28l1.17.94H24a19.23,19.23,0,1,0,19,19.23,19.24,19.24,0,0,0-8.57-16,1.46,1.46,0,1,0-1.62,2.43A16.33,16.33,0,0,1,24,40.65,16.3,16.3,0,0,1,24,8.06h.25L23.08,9a1.46,1.46,0,1,0,1.84,2.28l4.4-3.55a1.47,1.47,0,0,0,0-2.28Z"/><path class="cls-1" d="M19.46,15.4a1.48,1.48,0,0,1,1.55.18l9.77,7.81a1.47,1.47,0,0,1,0,2.29L21,33.49a1.46,1.46,0,0,1-2.38-1.14V16.72A1.47,1.47,0,0,1,19.46,15.4Z"/></svg>