<svg id="Слой_1" data-name="Слой 1" xmlns="http://www.w3.org/2000/svg" viewBox="0 0 48 48"><defs><style>.cls-1{fill:#3a7fc1;}</style></defs><title>Монтажная область 1</title><path class="cls-1" d="M47.69,24.75C47.27,24.16,37.05,10.39,24,10.39S.73,24.16.3,24.75a1.61,1.61,0,0,0,0,1.87C.73,27.2,11,41,24,41S47.27,27.2,47.69,26.62A1.58,1.58,0,0,0,47.69,24.75ZM24,37.81c-9.61,0-17.94-9.14-20.4-12.13,2.46-3,10.77-12.13,20.4-12.13s17.94,9.14,20.4,12.13C41.94,28.68,33.63,37.81,24,37.81Z"/><path class="cls-1" d="M24,16.19a9.5,9.5,0,1,0,9.49,9.49A9.5,9.5,0,0,0,24,16.19ZM24,32a6.33,6.33,0,1,1,6.33-6.33A6.34,6.34,0,0,1,24,32Z"/></svg>