<svg id="Слой_1" data-name="Слой 1" xmlns="http://www.w3.org/2000/svg" viewBox="0 0 48 48"><defs><style>.cls-1{fill:#3a7fc1;}</style></defs><title>Монтажная область 8</title><path class="cls-1" d="M24,3A21,21,0,0,0,5.78,34.45l-2.7,8.41a1.64,1.64,0,0,0,2.06,2.06l8.41-2.7A21,21,0,1,0,24,3Zm0,38.72A17.64,17.64,0,0,1,14.62,39a1.64,1.64,0,0,0-1.37-.17l-6.07,2,2-6.07A1.69,1.69,0,0,0,9,33.38a17.72,17.72,0,1,1,15,8.34ZM26.05,24A2.05,2.05,0,1,1,24,22,2.05,2.05,0,0,1,26.05,24Zm8.2,0a2,2,0,1,1-2-2.05A2,2,0,0,1,34.25,24Zm-16.4,0A2.05,2.05,0,1,1,15.8,22,2.05,2.05,0,0,1,17.85,24Z"/></svg>