<svg id="Слой_1" data-name="Слой 1" xmlns="http://www.w3.org/2000/svg" viewBox="0 0 48 48"><defs><style>.cls-1{fill:#3a7fc1;}</style></defs><title>Монтажная область 6</title><path class="cls-1" d="M44,39.19l-7.34-7.32a19.39,19.39,0,0,1-2.17,2.58,20.05,20.05,0,0,1-2.58,2.17L39.19,44A3.37,3.37,0,1,0,44,39.19Z"/><path class="cls-1" d="M32.65,8.12a17.34,17.34,0,1,0,0,24.53A17.28,17.28,0,0,0,32.65,8.12Zm-2.57,22a13.7,13.7,0,1,1,0-19.39A13.68,13.68,0,0,1,30.08,30.08Z"/><path class="cls-1" d="M14.23,21.94h0a4.41,4.41,0,0,0-1.87-2.68.79.79,0,0,0-.36-.09.64.64,0,0,0-.29.07c-.64.32-.53,2.31,0,3.8a10.69,10.69,0,0,0,6.62,6.37,8.71,8.71,0,0,0,3.14.59l-.76-.47C18.8,28.38,15.28,26.25,14.23,21.94Z"/></svg>