<svg id="Слой_1" data-name="Слой 1" xmlns="http://www.w3.org/2000/svg" viewBox="0 0 48 48"><defs><style>.cls-1{fill:#3a7fc1;}</style></defs><title>Монтажная область 7</title><path class="cls-1" d="M43.18,20.71,27.07,4.61a3.33,3.33,0,0,0-2.33-1.14c-1.13,0-2.44.81-2.44,3.11v9.66A20.55,20.55,0,0,0,4.64,43.55a1.48,1.48,0,0,0,2.79,0A17.59,17.59,0,0,1,22.3,31.92v9.5c0,2.3,1.31,3.11,2.44,3.11a3.33,3.33,0,0,0,2.33-1.14l16.11-16.1a4.68,4.68,0,0,0,0-6.58ZM24.83,29.3a1.47,1.47,0,0,0-1.06-.43A20.56,20.56,0,0,0,6.53,38.6a17.28,17.28,0,0,1-.1-1.9A17.63,17.63,0,0,1,23.8,19.13a1.48,1.48,0,0,0,1.47-1.48V7L41.08,22.81A1.66,1.66,0,0,1,41.57,24a1.65,1.65,0,0,1-.49,1.19L25.27,41V30.35A1.49,1.49,0,0,0,24.83,29.3Z"/></svg>