<svg id="Слой_1" data-name="Слой 1" xmlns="http://www.w3.org/2000/svg" viewBox="0 0 48 48"><defs><style>.cls-1{fill:#3a7fc1;}</style></defs><title>Монтажная область 3</title><path class="cls-1" d="M30.75,33l8,8H33A1.45,1.45,0,0,0,31.5,42.5v.32A1.45,1.45,0,0,0,33,44.28h9.76a1.57,1.57,0,0,0,1.57-1.57V33a1.45,1.45,0,0,0-1.46-1.45H42.5A1.45,1.45,0,0,0,41,33v5.81l-8-8a1.47,1.47,0,0,0-2.06,0l-.22.22A1.47,1.47,0,0,0,30.75,33Z"/><path class="cls-1" d="M30.75,17l.22.22a1.47,1.47,0,0,0,2.07,0l8-8v5.81A1.45,1.45,0,0,0,42.5,16.5h.32a1.45,1.45,0,0,0,1.46-1.45V5.29a1.57,1.57,0,0,0-1.57-1.57H33A1.45,1.45,0,0,0,31.5,5.18V5.5A1.45,1.45,0,0,0,33,7h5.81l-8,8A1.45,1.45,0,0,0,30.75,17Z"/><path class="cls-1" d="M15,30.75l-8,8V33A1.45,1.45,0,0,0,5.5,31.5H5.18A1.45,1.45,0,0,0,3.72,33v9.76a1.57,1.57,0,0,0,1.57,1.57h9.76a1.45,1.45,0,0,0,1.45-1.46V42.5A1.45,1.45,0,0,0,15.05,41H9.24l8-8a1.45,1.45,0,0,0,0-2.06L17,30.75A1.45,1.45,0,0,0,15,30.75Z"/><path class="cls-1" d="M9.24,7h5.81A1.45,1.45,0,0,0,16.5,5.5V5.18a1.45,1.45,0,0,0-1.45-1.46H5.29A1.57,1.57,0,0,0,3.72,5.29v9.76A1.45,1.45,0,0,0,5.18,16.5H5.5A1.45,1.45,0,0,0,7,15.05V9.24l8,8a1.45,1.45,0,0,0,2.06,0l.22-.22a1.45,1.45,0,0,0,0-2.06Z"/></svg>