<svg id="Слой_1" data-name="Слой 1" xmlns="http://www.w3.org/2000/svg" viewBox="0 0 48 48"><defs><style>.cls-1{fill:#3a7fc1;}</style></defs><title>Монтажная область 10</title><path class="cls-1" d="M25.75,34.5A1.75,1.75,0,1,1,24,32.75,1.75,1.75,0,0,1,25.75,34.5Z"/><path class="cls-1" d="M24,45A21,21,0,1,1,45,24,21,21,0,0,1,24,45ZM24,5.62A18.38,18.38,0,1,0,42.38,24,18.41,18.41,0,0,0,24,5.62Z"/><path class="cls-1" d="M24,28.81a1.31,1.31,0,0,1-1.31-1.31V25.73A3.93,3.93,0,0,1,25.32,22a5.43,5.43,0,0,0,3.49-4.58,4.81,4.81,0,1,0-9.62,0,1.32,1.32,0,0,1-2.63,0,7.44,7.44,0,1,1,14.88,0,8.06,8.06,0,0,1-5.25,7.06,1.3,1.3,0,0,0-.88,1.23V27.5A1.31,1.31,0,0,1,24,28.81Z"/></svg>