<svg id="Слой_1" data-name="Слой 1" xmlns="http://www.w3.org/2000/svg" viewBox="0 0 48 48"><defs><style>.cls-1{fill:#3a7fc1;}</style></defs><title>Монтажная область 4</title><path class="cls-1" d="M46.5,21A1.5,1.5,0,0,0,45,22.5v17l-12,4.8V28.5a1.5,1.5,0,0,0-3,0V44.28l-12-4.8V15.72l7,2.78a1.5,1.5,0,1,0,1.11-2.79l-9-3.59h0a1.43,1.43,0,0,0-1.11,0h0l-15,6A1.49,1.49,0,0,0,0,19.5v27A1.51,1.51,0,0,0,1.5,48a1.55,1.55,0,0,0,.56-.11L16.5,42.11l14.41,5.77h0a1.45,1.45,0,0,0,1.12,0h0l15-6A1.51,1.51,0,0,0,48,40.5v-18A1.5,1.5,0,0,0,46.5,21ZM15,39.48,3,44.28V20.51l12-4.8Z"/><path class="cls-1" d="M37.5,6A4.5,4.5,0,1,0,42,10.5,4.51,4.51,0,0,0,37.5,6Zm0,6A1.5,1.5,0,1,1,39,10.5,1.5,1.5,0,0,1,37.5,12Z"/><path class="cls-1" d="M37.5,0A10.51,10.51,0,0,0,27,10.5c0,5.39,8.42,14.93,9.38,16a1.5,1.5,0,0,0,2.24,0c1-1.07,9.38-10.61,9.38-16A10.51,10.51,0,0,0,37.5,0Zm0,23.21C34.22,19.32,30,13.36,30,10.5a7.5,7.5,0,0,1,15,0C45,13.36,40.77,19.32,37.5,23.21Z"/></svg>